<?xml version="1.0" standalone="no"?>
<!DOCTYPE svg PUBLIC "-//W3C//DTD SVG 20010904//EN"
 "http://www.w3.org/TR/2001/REC-SVG-20010904/DTD/svg10.dtd">
<svg version="1.0" xmlns="http://www.w3.org/2000/svg"
 width="447.000000pt" height="447.000000pt" viewBox="0 0 447.000000 447.000000"
 preserveAspectRatio="xMidYMid meet">

<g transform="translate(0.000000,447.000000) scale(0.100000,-0.100000)"
fill="#000000" stroke="none">
<path d="M30 2230 l0 -2210 2210 0 2210 0 0 2210 0 2210 -2210 0 -2210 0 0
-2210z m1830 1315 l0 -65 -35 0 c-57 0 -142 -37 -171 -75 -51 -68 -54 -92 -54
-568 0 -243 0 -448 0 -454 0 -10 144 -13 685 -13 l685 0 2 460 c1 253 3 497 3
543 0 67 -3 82 -15 81 -8 0 -68 -4 -132 -8 l-118 -7 0 86 0 85 430 0 430 0 0
-65 0 -65 -35 0 c-55 0 -142 -37 -169 -73 -57 -75 -55 -47 -58 -1237 l-3
-1095 133 3 132 4 0 -81 0 -81 -430 0 -431 0 3 62 3 63 50 7 c73 10 120 33
148 70 52 72 52 67 52 597 l0 494 -610 -3 c-335 -1 -643 -5 -683 -9 l-73 -6 0
-505 c0 -278 -3 -526 -8 -551 -4 -25 -6 -49 -4 -55 2 -5 59 -8 138 -6 l135 4
0 -81 0 -81 -430 0 -430 0 0 64 0 63 55 6 c112 11 176 74 195 191 5 30 10 540
11 1133 l1 1078 -53 -3 c-30 -1 -89 -5 -131 -8 l-78 -6 0 86 0 86 430 0 430 0
0 -65z"/>
</g>
</svg>
